<svg width="70" height="70" viewBox="0 0 70 70" fill="none" xmlns="http://www.w3.org/2000/svg">
<circle cx="35" cy="35" r="35" fill="black"/>
<g filter="url(#filter0_d_510_643)">
<g clip-path="url(#clip0_510_643)">
<g clip-path="url(#clip1_510_643)">
<path d="M30.1302 51.1455C30.1302 51.8563 29.9332 52.5511 29.5641 53.1421C29.195 53.7331 28.6703 54.1937 28.0564 54.4657C27.4426 54.7377 26.7671 54.8089 26.1155 54.6702C25.4638 54.5315 24.8653 54.1893 24.3954 53.6867C23.9256 53.1841 23.6057 52.5437 23.476 51.8466C23.3464 51.1495 23.413 50.4269 23.6672 49.7702C23.9215 49.1136 24.3521 48.5523 24.9045 48.1574C25.457 47.7625 26.1065 47.5518 26.7709 47.5518C27.6618 47.5518 28.5163 47.9304 29.1463 48.6043C29.7763 49.2783 30.1302 50.1924 30.1302 51.1455ZM44.2396 47.5518C43.5752 47.5518 42.9257 47.7625 42.3733 48.1574C41.8208 48.5523 41.3902 49.1136 41.136 49.7702C40.8817 50.4269 40.8152 51.1495 40.9448 51.8466C41.0744 52.5437 41.3944 53.1841 41.8642 53.6867C42.334 54.1893 42.9326 54.5315 43.5842 54.6702C44.2359 54.8089 44.9114 54.7377 45.5252 54.4657C46.139 54.1937 46.6637 53.7331 47.0328 53.1421C47.402 52.5511 47.599 51.8563 47.599 51.1455C47.599 50.1924 47.2451 49.2783 46.6151 48.6043C45.9851 47.9304 45.1306 47.5518 44.2396 47.5518ZM52.885 25.9048L48.3011 41.8431C48.0084 42.8738 47.4129 43.7761 46.6029 44.4161C45.7929 45.056 44.8115 45.3995 43.8046 45.3955H27.263C26.2416 45.392 25.2488 45.0344 24.4333 44.3765C23.6178 43.7186 23.0236 42.7957 22.7396 41.7461L16.9968 20.2393H15.349C14.8144 20.2393 14.3017 20.0121 13.9237 19.6077C13.5457 19.2033 13.3334 18.6549 13.3334 18.083C13.3334 17.5111 13.5457 16.9627 13.9237 16.5583C14.3017 16.1539 14.8144 15.9268 15.349 15.9268H17.5024C18.2319 15.9292 18.9411 16.1846 19.5235 16.6547C20.1058 17.1248 20.53 17.7842 20.7324 18.534L21.9569 23.1143H50.9584C51.2738 23.1142 51.5849 23.1934 51.8665 23.3454C52.1481 23.4974 52.3925 23.718 52.5799 23.9895C52.7673 24.2609 52.8925 24.5756 52.9455 24.9083C52.9985 25.241 52.9778 25.5823 52.885 25.9048ZM48.2289 27.4268H23.1075L26.6163 40.5619C26.6565 40.7122 26.7414 40.8443 26.8581 40.9384C26.9748 41.0324 27.1169 41.0832 27.263 41.083H43.8046C43.9484 41.0833 44.0885 41.0343 44.2043 40.943C44.3201 40.8518 44.4055 40.7233 44.4479 40.5763L48.2289 27.4268Z" fill="white"/>
</g>
</g>
</g>
<defs>
<filter id="filter0_d_510_643" x="8" y="12" width="54.6666" height="54.667" filterUnits="userSpaceOnUse" color-interpolation-filters="sRGB">
<feFlood flood-opacity="0" result="BackgroundImageFix"/>
<feColorMatrix in="SourceAlpha" type="matrix" values="0 0 0 0 0 0 0 0 0 0 0 0 0 0 0 0 0 0 127 0" result="hardAlpha"/>
<feOffset dy="4"/>
<feGaussianBlur stdDeviation="2"/>
<feComposite in2="hardAlpha" operator="out"/>
<feColorMatrix type="matrix" values="0 0 0 0 0 0 0 0 0 0 0 0 0 0 0 0 0 0 0.25 0"/>
<feBlend mode="normal" in2="BackgroundImageFix" result="effect1_dropShadow_510_643"/>
<feBlend mode="normal" in="SourceGraphic" in2="effect1_dropShadow_510_643" result="shape"/>
</filter>
<clipPath id="clip0_510_643">
<rect x="12" y="12" width="46.6667" height="46.6667" fill="white"/>
</clipPath>
<clipPath id="clip1_510_643">
<rect width="43" height="46" fill="white" transform="translate(13.3334 12.333)"/>
</clipPath>
</defs>
</svg>
