<svg width="52" height="55" viewBox="0 0 52 55" fill="none" xmlns="http://www.w3.org/2000/svg">
<g filter="url(#filter0_d_510_641)">
<g clip-path="url(#clip0_510_641)">
<g clip-path="url(#clip1_510_641)">
<path d="M21.1302 39.1455C21.1302 39.8563 20.9332 40.5511 20.5641 41.1421C20.195 41.7331 19.6703 42.1937 19.0564 42.4657C18.4426 42.7377 17.7671 42.8089 17.1155 42.6702C16.4638 42.5315 15.8653 42.1893 15.3954 41.6867C14.9256 41.1841 14.6057 40.5437 14.476 39.8466C14.3464 39.1495 14.413 38.4269 14.6672 37.7702C14.9215 37.1136 15.3521 36.5523 15.9045 36.1574C16.457 35.7625 17.1065 35.5518 17.7709 35.5518C18.6618 35.5518 19.5163 35.9304 20.1463 36.6043C20.7763 37.2783 21.1302 38.1924 21.1302 39.1455ZM35.2396 35.5518C34.5752 35.5518 33.9257 35.7625 33.3733 36.1574C32.8208 36.5523 32.3902 37.1136 32.136 37.7702C31.8817 38.4269 31.8152 39.1495 31.9448 39.8466C32.0744 40.5437 32.3944 41.1841 32.8642 41.6867C33.334 42.1893 33.9326 42.5315 34.5842 42.6702C35.2359 42.8089 35.9114 42.7377 36.5252 42.4657C37.139 42.1937 37.6637 41.7331 38.0328 41.1421C38.402 40.5511 38.599 39.8563 38.599 39.1455C38.599 38.1924 38.2451 37.2783 37.6151 36.6043C36.9851 35.9304 36.1306 35.5518 35.2396 35.5518ZM43.885 13.9048L39.3011 29.8431C39.0084 30.8738 38.4129 31.7761 37.6029 32.4161C36.7929 33.056 35.8115 33.3995 34.8046 33.3955H18.263C17.2416 33.392 16.2488 33.0344 15.4333 32.3765C14.6178 31.7186 14.0236 30.7957 13.7396 29.7461L7.99677 8.23926H6.349C5.81442 8.23926 5.30174 8.01208 4.92374 7.60771C4.54573 7.20333 4.33337 6.65488 4.33337 6.08301C4.33337 5.51113 4.54573 4.96268 4.92374 4.55831C5.30174 4.15393 5.81442 3.92676 6.349 3.92676H8.50236C9.23192 3.92917 9.94108 4.18458 10.5235 4.65467C11.1058 5.12476 11.53 5.78419 11.7324 6.53402L12.9569 11.1143H41.9584C42.2738 11.1142 42.5849 11.1934 42.8665 11.3454C43.1481 11.4974 43.3925 11.718 43.5799 11.9895C43.7673 12.2609 43.8925 12.5756 43.9455 12.9083C43.9985 13.241 43.9778 13.5823 43.885 13.9048ZM39.2289 15.4268H14.1075L17.6163 28.5619C17.6565 28.7122 17.7414 28.8443 17.8581 28.9384C17.9748 29.0324 18.1169 29.0832 18.263 29.083H34.8046C34.9484 29.0833 35.0885 29.0343 35.2043 28.943C35.3201 28.8518 35.4055 28.7233 35.4479 28.5763L39.2289 15.4268Z" fill="white"/>
</g>
</g>
</g>
<defs>
<filter id="filter0_d_510_641" x="-1" y="0" width="54.6666" height="54.667" filterUnits="userSpaceOnUse" color-interpolation-filters="sRGB">
<feFlood flood-opacity="0" result="BackgroundImageFix"/>
<feColorMatrix in="SourceAlpha" type="matrix" values="0 0 0 0 0 0 0 0 0 0 0 0 0 0 0 0 0 0 127 0" result="hardAlpha"/>
<feOffset dy="4"/>
<feGaussianBlur stdDeviation="2"/>
<feComposite in2="hardAlpha" operator="out"/>
<feColorMatrix type="matrix" values="0 0 0 0 0 0 0 0 0 0 0 0 0 0 0 0 0 0 0.25 0"/>
<feBlend mode="normal" in2="BackgroundImageFix" result="effect1_dropShadow_510_641"/>
<feBlend mode="normal" in="SourceGraphic" in2="effect1_dropShadow_510_641" result="shape"/>
</filter>
<clipPath id="clip0_510_641">
<rect x="3" width="46.6667" height="46.6667" fill="white"/>
</clipPath>
<clipPath id="clip1_510_641">
<rect width="43" height="46" fill="white" transform="translate(4.33337 0.333008)"/>
</clipPath>
</defs>
</svg>
